<svg xmlns="http://www.w3.org/2000/svg" viewBox="0 0 269.5 53.079">
  <defs>
    <style>
      .cls-1 {
        fill: #0078c9;
      }
    </style>
  </defs>
  <g id="Group_632" data-name="Group 632" transform="translate(-2877.5 -4477)">
    <g id="Group_631" data-name="Group 631" transform="translate(0 0)">
      <g id="Layer_1_1_" transform="translate(44.727 44.902)">
        <path id="Path_346" data-name="Path 346" class="cls-1" d="M323.1,94.856a2.456,2.456,0,1,1,2.456,2.456A2.451,2.451,0,0,1,323.1,94.856Zm2.456,2.017a2.017,2.017,0,1,0-2.017-2.017A1.934,1.934,0,0,0,325.556,96.873Zm-.526-.614h-.438V93.452h1.052c.7,0,.965.263.965.789a.773.773,0,0,1-.7.789l.789,1.228h-.439l-.7-1.228h-.526Zm.526-1.579c.351,0,.7,0,.7-.438,0-.351-.351-.438-.614-.438h-.614v.877Z" transform="translate(-323.1 -92.4)"/>
      </g>
      <path id="Path_347" data-name="Path 347" class="cls-1" d="M297.228,54.675,296.175,55.9a.665.665,0,0,0-.175.351V73.618a.456.456,0,0,0,.175.351l1.052,1.228a.67.67,0,0,0,.439.175c.175,0,.263-.088.439-.175l1.052-1.228a.665.665,0,0,0,.175-.351V56.254a.456.456,0,0,0-.175-.351L298.1,54.675a.67.67,0,0,0-.439-.175A.515.515,0,0,0,297.228,54.675Z" transform="translate(-275.04 -42.836)"/>
      <path id="Path_348" data-name="Path 348" class="cls-1" d="M292.7,58.4c-.088,0-.175.088-.263.175L291.388,59.8a.322.322,0,0,0-.088.263V74.274a.322.322,0,0,0,.088.263l1.052,1.315c.088.088.175.175.263.175s.175-.088.263-.175l1.052-1.228a.322.322,0,0,0,.088-.263V59.979a.322.322,0,0,0-.088-.263l-1.052-1.228C292.966,58.4,292.879,58.4,292.7,58.4Z" transform="translate(-274.462 -43.316)"/>
      <path id="Path_349" data-name="Path 349" class="cls-1" d="M288.1,62.9a.322.322,0,0,0-.263.088l-1.052,1.052c-.088.088-.088.088-.088.175v6.928c0,.088,0,.175.088.175l1.052,1.052a.438.438,0,0,0,.526,0l1.052-1.052c.088-.088.088-.088.088-.175V64.215c0-.088,0-.175-.088-.175l-1.052-1.052A.322.322,0,0,0,288.1,62.9Z" transform="translate(-273.896 -43.869)"/>
      <path id="Path_350" data-name="Path 350" class="cls-1" d="M308.166,54.5c-.175,0-.263.088-.438.175L306.675,55.9a.665.665,0,0,0-.175.351V73.618a.456.456,0,0,0,.175.351l1.052,1.228a.67.67,0,0,0,.438.175c.175,0,.263-.088.439-.175l1.052-1.228a.665.665,0,0,0,.175-.351V56.254a.456.456,0,0,0-.175-.351L308.6,54.675C308.429,54.588,308.342,54.5,308.166,54.5Z" transform="translate(-276.331 -42.836)"/>
      <path id="Path_351" data-name="Path 351" class="cls-1" d="M312.84,58.475,311.788,59.7a.322.322,0,0,0-.088.263V74.174a.322.322,0,0,0,.088.263l1.052,1.228c.088.088.175.175.263.175s.175-.088.263-.175l1.052-1.315a.322.322,0,0,0,.088-.263V59.966a.322.322,0,0,0-.088-.263l-1.052-1.228c-.088-.088-.175-.175-.263-.175C312.928,58.388,312.84,58.388,312.84,58.475Z" transform="translate(-276.971 -43.303)"/>
      <path id="Path_352" data-name="Path 352" class="cls-1" d="M317.44,62.988l-1.052,1.052c-.088.088-.088.088-.088.175v6.928c0,.088,0,.175.088.175l.965,1.052a.439.439,0,0,0,.526,0l1.052-1.052c.088-.088.088-.088.088-.175V64.215c0-.088,0-.175-.088-.175l-1.052-1.052a.322.322,0,0,0-.263-.088A.271.271,0,0,0,317.44,62.988Z" transform="translate(-277.537 -43.869)"/>
      <path id="Path_353" data-name="Path 353" class="cls-1" d="M305.075,83.559a18.537,18.537,0,0,0,13.067-4.911c4.21-4.3,6.051-9.472,6.051-16.137,0-12.8-8.945-21.311-22.8-21.311a29.225,29.225,0,0,0-23.24,11.05A27.276,27.276,0,0,0,272.1,69.527a23.458,23.458,0,0,0,9.3,19.294c4.473,3.42,10.875,5.7,18.592,5.437,5.087-.175,10.085-1.491,12.8-3.508,2.193-1.666,1.228-1.666.526-1.579a5.962,5.962,0,0,0-1.14.351,28.8,28.8,0,0,1-12.1,2.806c-14.032,0-23.065-8.419-23.065-22.188,0-9.384,3.859-17.277,10.7-22.276a24.336,24.336,0,0,1,14.558-4.56c11.839,0,20.259,7.63,20.171,18.943-.088,7.016-1.316,10.875-5,15.084a14.3,14.3,0,0,1-11.839,4.56c-3.946-.351-4.385-2.719-4.385-4.648V51.812a1.267,1.267,0,0,0-.175-.614l-.877-1.4a.921.921,0,0,0-.789-.438,1.046,1.046,0,0,0-.789.438l-.877,1.4a1.267,1.267,0,0,0-.175.614V77.244h0C297.533,80.489,300.778,83.208,305.075,83.559Z" transform="translate(-272.1 -41.2)"/>
    </g>
    <path id="Path_354" data-name="Path 354" class="cls-1" d="M352.168,57.437c-7.191-1.666-14.821,1.842-14.821,1.842l.877,5.437s5.437-2.456,9.735-2.28c4.823.263,4.122,4.911,4.122,4.911s-13.944.351-16.049,7.63S339.013,86.2,344.1,85.413c3.6-.438,4.911-1.052,8.419-4.034.263,2.543.351,3.508.351,3.508h5.876V65.155C358.658,65.155,359.36,59.1,352.168,57.437Zm-.175,20.083a11.133,11.133,0,0,1-5.964,2.982c-3.333.526-4.034-2.894-3.6-4.122.351-1.14,1.315-4.034,9.471-5.087V77.52Z" transform="translate(-279.904 -43.142)"/>
    <path id="Path_355" data-name="Path 355" class="cls-1" d="M384.032,58.954l-.877,5.876s-9.384-5.437-12.278-.789c-.614,1.491.789,3.069,5.087,3.946,3.946.877,10.436,3.333,9.822,9.121-.351,4.736-3.508,8.156-10.085,8.244A25.974,25.974,0,0,1,364.3,82.9l.789-5.788a16.381,16.381,0,0,0,9.735,3.42c4.911,0,4.648-3.245,4.648-3.245s.614-2.631-7.454-3.946c-7.717-1.315-7.893-7.542-7.367-9.559S367.194,53.692,384.032,58.954Z" transform="translate(-283.441 -43.168)"/>
    <path id="Path_356" data-name="Path 356" class="cls-1" d="M405.984,57.2c-6.227,0-8.595,4.21-8.595,4.21l-.7-3.6H390.9V95.349l6.841-.965V84.036s1.315,1.315,6.314,1.315,11.664-3.333,11.664-13.243S412.123,57.2,405.984,57.2Zm3.069,14.383c-.526,6.577-3.069,8.156-6.665,8.156s-4.823-1.228-4.823-1.228V66.935c1.666-2.192,3.683-3.683,6.051-3.859C406.072,62.9,409.668,65.005,409.054,71.583Z" transform="translate(-286.713 -43.168)"/>
    <path id="Path_357" data-name="Path 357" class="cls-1" d="M444.825,76.845a16.241,16.241,0,0,1-10,3.333c-5.7-.263-6.577-5.613-6.577-7.542h17.277S447.017,57.2,434.476,57.2,421.5,70.881,421.5,70.881s-1.14,14.558,12.629,14.558c8.331-.263,11.4-3.333,11.4-3.333Zm-10.962-15c5,0,5.174,6.49,5.174,6.49H428.25S428.863,61.848,433.862,61.848Z" transform="translate(-290.474 -43.168)"/>
    <path id="Path_358" data-name="Path 358" class="cls-1" d="M451.7,57.638V84.65h6.753V66.759s2.719-3.683,6.4-3.683a3.425,3.425,0,0,1,3.245,2.806V84.65h6.753V64.041s.263-6.841-7.63-6.841c-5.262,0-9.033,4.3-9.033,4.3l-.614-3.771Z" transform="translate(-294.192 -43.168)"/>
    <path id="Path_359" data-name="Path 359" class="cls-1" d="M480.5,57.035v3.157h4.21V78.7s.526,7.893,10.524,4.823l-.438-2.894s-6.4,1.754-6.49-2.28,0-18.066,0-18.066h6.928l-.7-3.069h-6.227l-.088-9.91-3.42.877v8.945Z" transform="translate(-297.735 -41.95)"/>
    <path id="Path_360" data-name="Path 360" class="cls-1" d="M520.071,78.4a14.322,14.322,0,0,1-9.471,3.859c-5.7,0-8.419-5.087-8.419-10.436H520.6S522,57.7,510.249,57.7,498.5,71.206,498.5,71.206s-1.052,14.12,11.927,14.295A13.868,13.868,0,0,0,520.6,81.554Zm-10.085-17.54c7.1,0,7.016,8.068,7.016,8.068H502.443S502.882,60.857,509.986,60.857Z" transform="translate(-299.946 -43.23)"/>
    <path id="Path_361" data-name="Path 361" class="cls-1" d="M547.265,64.052s-6.928-5.876-12.979-1.4c-2.543,2.28-5.525,9.033-1.579,16.049,1.579,2.982,8.156,6.227,14.909.438l.7,3.245s-9.735,7.981-18.5-1.315c-4.648-5.613-3.42-18.768,3.6-21.749a15.957,15.957,0,0,1,14.47.965A21.882,21.882,0,0,1,547.265,64.052Z" transform="translate(-303.461 -43.267)"/>
    <path id="Path_362" data-name="Path 362" class="cls-1" d="M555.7,43.377V83.1h3.6V63.986s5.174-5.788,9.91-4.736a4.347,4.347,0,0,1,3.6,4.034V83.192h3.683V62.583s-.526-6.753-7.1-6.753a12.708,12.708,0,0,0-10,4.56V42.5Z" transform="translate(-306.985 -41.36)"/>
  </g>
</svg>
