<svg xmlns="http://www.w3.org/2000/svg" viewBox="-2463.75 -1203.188 949.945 111.722">
  <defs>
    <style>
      .cls-1 {
        fill: #fff;
      }

      .cls-2 {
        fill: none;
      }
    </style>
  </defs>
  <g id="Group_1919" data-name="Group 1919" transform="translate(-2463.75 -1203.188)">
    <g id="Group_1916" data-name="Group 1916">
      <path id="Path_1308" data-name="Path 1308" class="cls-1" d="M54.945,1.1C24.827,1.1,0,25.724,0,55.842c0,31.136,24.624,54.742,54.945,54.742,30.525,0,55.149-23.606,55.149-54.742C110.094,25.724,85.064,1.1,54.945,1.1Zm0,97.274A42.255,42.255,0,0,1,13.024,55.842c0-23.2,17.3-42.532,41.921-42.532S97.07,32.643,97.07,55.842A42.3,42.3,0,0,1,54.945,98.374Z" transform="translate(0 1.139)"/>
      <path id="Path_1309" data-name="Path 1309" class="cls-1" d="M78.459,2.2H63.4V107.207H76.424V63.25h7.53c19.943,0,36.834-8.547,36.834-30.729C120.787,13.393,110.816,2.2,78.459,2.2ZM80.7,51.447h-4.07V13.8h3.46c13.024,0,28.49,2.035,28.49,18.315C108.577,49.005,94.129,51.447,80.7,51.447Z" transform="translate(65.62 2.277)"/>
      <path id="Path_1310" data-name="Path 1310" class="cls-1" d="M159.885,2.2V14.207H134.855v93H121.831v-93H96.8V2.2Z" transform="translate(100.19 2.277)"/>
      <rect id="Rectangle_4503" data-name="Rectangle 4503" class="cls-1" width="13.024" height="105.007" transform="translate(277.576 4.477)"/>
      <path id="Path_1311" data-name="Path 1311" class="cls-1" d="M269.082,109.484H255.447L243.237,40.09h-.2l-31.543,71.633L179.948,40.09h-.2l-12.21,69.394H153.9L175.471,0l36.02,82.825L247.511,0Z" transform="translate(159.289)"/>
      <rect id="Rectangle_4504" data-name="Rectangle 4504" class="cls-1" width="13.024" height="105.007" transform="translate(451.977 4.477)"/>
      <path id="Path_1312" data-name="Path 1312" class="cls-1" d="M259.268,95.2h53.317v12.007H237.9l53.317-93H245.43V2.2h67.156Z" transform="translate(246.23 2.277)"/>
      <path id="Path_1313" data-name="Path 1313" class="cls-1" d="M296.924,14.207v29.3h42.125V55.517H296.924V95.2H340.27v12.007H283.9V2.2h56.37V14.207Z" transform="translate(293.841 2.277)"/>
    </g>
    <path id="Path_1314" data-name="Path 1314" class="cls-1" d="M356.987,2.2,340.3,107.207H581.246L597.729,2.2H356.987Zm57.794,39.886a20.42,20.42,0,0,1-6.309,12.007l-23.4,23.2h24.013l-1.018,5.9H371.232l31.746-31.543a17.945,17.945,0,0,0,5.291-9.565c1.018-6.309-3.46-10.989-9.565-10.989-6.919,0-12.21,5.088-13.431,11.8h-6.309c1.831-9.972,10.379-17.7,20.35-17.7C409.083,25.2,416.206,32.318,414.782,42.086Zm54.335,12.821c-2.239,14.042-12.007,29.508-25.031,29.508s-17.908-15.263-15.67-29.508C430.248,43.1,439,25.4,453.447,25.4,467.692,25.2,470.948,43.1,469.116,54.907ZM495.165,83.4h-6.309L497,32.318h-9.565l4.274-5.9h12.414Zm29.3.814-4.477-3.053,40.09-49.247H528.946l1.018-5.9h42.125Z" transform="translate(352.216 2.277)"/>
    <g id="Group_1917" data-name="Group 1917" transform="translate(723.448 27.473)">
      <path id="Path_1315" data-name="Path 1315" class="cls-2" d="M392.741,42.5l-23.4,23.2h24.013l-1.017,5.9H355.5l31.746-31.543a17.945,17.945,0,0,0,5.291-9.565c1.018-6.309-3.46-10.989-9.565-10.989-6.919,0-12.21,5.088-13.431,11.8h-6.309c1.831-9.972,10.379-17.7,20.35-17.7,9.565,0,16.891,6.919,15.263,16.891A20.707,20.707,0,0,1,392.741,42.5Z" transform="translate(-355.5 -13.396)"/>
      <path id="Path_1316" data-name="Path 1316" class="cls-2" d="M408.8,13.5c-14.449,0-23.2,17.908-25.031,29.508-2.239,14.042,2.645,29.508,15.67,29.508s22.792-15.263,25.031-29.508C426.5,31.408,423.246,13.5,408.8,13.5Zm9.361,29.915c-1.425,7.937-7.326,23.2-17.7,23.2-10.582,0-11.6-15.263-10.379-23.2C391.3,35.275,397.2,19.4,407.983,19.4,418.769,19.605,419.583,35.478,418.158,43.415Z" transform="translate(-326.786 -13.5)"/>
      <path id="Path_1317" data-name="Path 1317" class="cls-1" d="M414.89,40.413c-1.425,7.937-7.326,23.2-17.7,23.2-10.582,0-11.6-15.263-10.379-23.2,1.221-8.14,7.123-24.013,17.908-24.013C415.5,16.6,416.314,32.477,414.89,40.413Z" transform="translate(-323.517 -10.498)"/>
      <path id="Path_1318" data-name="Path 1318" class="cls-2" d="M429.491,14l-9.158,57.184h-6.309l8.14-51.282H412.6l4.274-5.9Z" transform="translate(-296.4 -12.982)"/>
      <path id="Path_1319" data-name="Path 1319" class="cls-2" d="M480.7,14,433.077,72,428.6,69.149,468.69,19.9H437.554l1.018-5.9Z" transform="translate(-279.84 -12.982)"/>
    </g>
    <g id="Group_1918" data-name="Group 1918" transform="translate(645.1 4.274)">
      <path id="Path_1320" data-name="Path 1320" class="cls-1" d="M332.873,2.1V5.356h-6.105l-2.645,17.3h-4.07l2.849-17.3H317l.61-3.256Z" transform="translate(-317 -2.1)"/>
      <path id="Path_1321" data-name="Path 1321" class="cls-1" d="M348.92,2.1l-1.832,20.554h-3.867l1.221-15.059-7.123,15.263h-3.459L331.419,7.595l-3.46,15.059H324.5L329.384,2.1h4.884l2.442,15.466L344.036,2.1Z" transform="translate(-309.237 -2.1)"/>
    </g>
  </g>
</svg>
