<svg id="Layer_1" data-name="Layer 1" xmlns="http://www.w3.org/2000/svg" viewBox="0 0 56.8 28.3">
  <title>track-promo-logo-grid</title>
  <g>
    <path d="M12.4,2.1S-27.9,35,36.7,27.1C36.7,27.1-14.9,32.4,12.4,2.1Z" style="fill: #353d8e"/>
    <path d="M44.4,26.2S84.6-6.6,20.1,1.2C20.1,1.2,71.7-4.1,44.4,26.2Z" style="fill: #e7732b"/>
    <polygon points="15.8 8 13.8 12.4 11.7 8 8.3 8 12.3 15.2 12.3 19.5 15.2 19.5 15.2 15.2 19.1 8 15.8 8"/>
    <polygon points="25.8 7.9 25.8 14.9 21.3 7.9 18.2 7.9 18.2 19.6 21.2 19.6 21.2 12.4 25.8 19.6 28.8 19.6 28.8 7.9 25.8 7.9"/>
    <path d="M36,15.2v.2a3.2,3.2,0,0,1-.5,1.2,1.9,1.9,0,0,1-1.6.7,2.1,2.1,0,0,1-1.7-.8,4.1,4.1,0,0,1-.7-2.6,4.7,4.7,0,0,1,.7-2.7,2,2,0,0,1,1.7-.9,2,2,0,0,1,1.6.6,2.9,2.9,0,0,1,.5,1.1v.2h2.8v-.3A4.3,4.3,0,0,0,38,9.7a4.8,4.8,0,0,0-4.3-1.9,4.8,4.8,0,0,0-3.6,1.4,6.4,6.4,0,0,0-1.6,4.7,6.5,6.5,0,0,0,1.4,4.4,5,5,0,0,0,3.9,1.6,4.7,4.7,0,0,0,3.3-1.2,5.3,5.3,0,0,0,1.6-3.1v-.3Z"/>
    <path d="M46,15.2v.2a3.2,3.2,0,0,1-.5,1.2,1.9,1.9,0,0,1-1.6.7,2.1,2.1,0,0,1-1.7-.8,4.1,4.1,0,0,1-.7-2.6,4.7,4.7,0,0,1,.7-2.7,2,2,0,0,1,1.7-.9,2,2,0,0,1,1.6.6,2.9,2.9,0,0,1,.5,1.1v.2h2.8v-.3A4.3,4.3,0,0,0,48,9.7a4.8,4.8,0,0,0-4.3-1.9,4.8,4.8,0,0,0-3.6,1.4,6.4,6.4,0,0,0-1.6,4.7,6.5,6.5,0,0,0,1.4,4.4,5,5,0,0,0,3.9,1.6,4.7,4.7,0,0,0,3.3-1.2,5.3,5.3,0,0,0,1.6-3.1v-.3Z"/>
  </g>
</svg>
