<svg id="Layer_1" data-name="Layer 1" xmlns="http://www.w3.org/2000/svg" viewBox="0 0 47.3 22">
  <title>track-promo-logo-grid</title>
  <g>
    <path d="M11.8,4.2a6.8,6.8,0,1,0,0,13.5A10.1,10.1,0,0,0,18.5,15V20a14.8,14.8,0,0,1-7,2C5.2,22,0,17,0,11A11.2,11.2,0,0,1,11.5,0a17.2,17.2,0,0,1,7,1.6v5a12.6,12.6,0,0,0-6.7-2.4" style="fill: #de0e2c"/>
    <path d="M31.7,22c-6.3,0-11.5-4.9-11.5-11S25.4,0,32,0a19.1,19.1,0,0,1,7.2,1.5V6.4a15.2,15.2,0,0,0-7.1-2.2A6.9,6.9,0,0,0,25,11a7,7,0,0,0,7.2,6.9,6.9,6.9,0,0,0,2.6-.4v-4H31.2V9.3h8.1V20.4A18.4,18.4,0,0,1,31.7,22" style="fill: #de0e2c"/>
    <rect x="42.8" y="0.4" width="4.5" height="21.14" style="fill: #de0e2c"/>
  </g>
</svg>
