<svg id="Layer_1" data-name="Layer 1" xmlns="http://www.w3.org/2000/svg" viewBox="0 0 61.2 12.7">
  <title>track-promo-logo-grid</title>
  <g>
    <path d="M18.5,2.1v.6H15.7l-.3,2h2.5v.6H15.3c-.1.8-.3,2.2-.3,2.7h-.8c.1-.8.6-4.1.7-5.8Z" style="fill: #8e979d"/>
    <path d="M20.1,3.6c-.2,1.4-.4,2.9-.6,4.3h-.8c.2-1.4.4-2.9.6-4.3Zm-.7-.9V2.1h.8v.6Z" style="fill: #8e979d"/>
    <path d="M21.9,4.2,23.1,4c1,0,1.4.6,1.4,1.5s-.6,1.9-1.6,1.9-1.3-.6-1.2-1.6.1-1.1.2-1.6M21.5,7h0A1.4,1.4,0,0,0,23,8a2.4,2.4,0,0,0,2.3-2.4c.1-1.6-.8-2.1-1.9-2.1L22,3.6c.1-.5.1-1,.2-1.6h-.8c-.2,1.9-.5,3.9-.8,5.8h.7Z" style="fill: #8e979d"/>
    <path d="M26.8,5.2a1.5,1.5,0,0,1,1.5-1.3c.8,0,1,.5,1,1.3Zm3.1.5V5.2c.1-1.2-.6-1.8-1.7-1.8a2.4,2.4,0,0,0-2.4,2.3c-.1,1.1.3,2.1,2,2.1l1.3-.2.2-.6-1.3.3a1.3,1.3,0,0,1-1.5-1.6V5.6Z" style="fill: #8e979d"/>
    <path d="M31.6,4.2h0A1.5,1.5,0,0,1,33,3.5h.3v.6h-.5a1.4,1.4,0,0,0-1.3,1.2,21.6,21.6,0,0,0-.3,2.6h-.8c.2-1.2.4-2.5.5-4.3h.7Z" style="fill: #8e979d"/>
    <path d="M34.3,2.1c.4,1.7.9,3.4,1.3,5.2,1-1.7,2-3.4,3-5.2h.9L35.9,7.9H35c-.4-1.9-1-3.9-1.5-5.8Z" style="fill: #8e979d"/>
    <path d="M40.3,3.6c-.2,1.4-.4,2.9-.6,4.3h-.8c.2-1.4.4-2.9.6-4.3Zm-.7-.9V2.1h.8v.6Z" style="fill: #8e979d"/>
    <path d="M40.7,7.1l1.2.3c.4,0,.9-.1.9-.6s-1.7-1.3-1.6-2.3.6-1.1,1.6-1.1h1v.6l-1-.2c-.4,0-.8.1-.9.5s1.7,1.3,1.6,2.4S42.6,8,42,8l-1.2-.2Z" style="fill: #8e979d"/>
    <path d="M45.7,3.6c-.2,1.4-.4,2.9-.6,4.3h-.8c.2-1.4.4-2.9.6-4.3Zm-.7-.9V2.1h.8v.6Z" style="fill: #8e979d"/>
    <path d="M48.8,4c1,0,1.4.6,1.3,1.6s-.6,1.8-1.7,1.8-1.4-.7-1.3-1.6S47.8,4,48.8,4m.1-.5a2.4,2.4,0,0,0-2.5,2.4A1.8,1.8,0,0,0,48.4,8a2.4,2.4,0,0,0,2.5-2.4,1.8,1.8,0,0,0-1.9-2.1" style="fill: #8e979d"/>
    <path d="M52.7,4.4h0a1.9,1.9,0,0,1,1.8-.9c.9,0,1.6.3,1.5,1.3s-.3,2.3-.4,3h-.8c.1-.5.3-2,.4-2.8s-.4-1-1.1-1a1.6,1.6,0,0,0-1.5,1.2,17.9,17.9,0,0,0-.4,2.7h-.8c.2-1.4.5-2.9.6-4.3h.7Z" style="fill: #8e979d"/>
    <path d="M56.5,7.1l1.2.3c.4,0,.9-.1.9-.6S56.9,5.6,57,4.5s.6-1.1,1.6-1.1h1v.6l-1-.2c-.4,0-.8.1-.9.5s1.7,1.3,1.6,2.4S58.4,8,57.7,8l-1.2-.2Z" style="fill: #8e979d"/>
    <path d="M6.3,12.6a6.3,6.3,0,1,1,6.3-6.3,6.3,6.3,0,0,1-6.3,6.3" style="fill: #fff;fill-rule: evenodd"/>
    <path d="M6.2,10.4h.5a1.9,1.9,0,0,0-.4-3.8H0a6.3,6.3,0,0,0,1.5,3.9Zm-1-1.9A1.1,1.1,0,1,1,6.4,9.6,1.1,1.1,0,0,1,5.2,8.5" style="fill: #006940;fill-rule: evenodd"/>
    <path d="M8.9,8.5a2.6,2.6,0,0,1-.1.5A3.1,3.1,0,0,0,6.3,4.3H.3A6.3,6.3,0,0,0,0,5.8H6.3A2.6,2.6,0,0,1,8.9,8.5" style="fill: #006940;fill-rule: evenodd"/>
    <path d="M10.1,7.3A3.8,3.8,0,0,1,10,8,4.1,4.1,0,0,0,6.3,2.2H1.5A6.3,6.3,0,0,0,.6,3.5H6.3a3.8,3.8,0,0,1,3.8,3.8" style="fill: #006940;fill-rule: evenodd"/>
    <path d="M6.2,11.1h-4A6.3,6.3,0,1,0,6.3,0,6.3,6.3,0,0,0,2.2,1.5H6.3A4.8,4.8,0,0,1,7.1,11H6.2Z" style="fill: #006940;fill-rule: evenodd"/>
    <path d="M60.1,3.9a.5.5,0,0,1,.6-.6.5.5,0,0,1,.5.5.5.5,0,0,1-.6.6.5.5,0,0,1-.5-.5m1,0a.4.4,0,0,0-.4-.4.5.5,0,0,0-.5.5.4.4,0,0,0,.4.4.5.5,0,0,0,.5-.5m-.7.3V3.6h.3c.1,0,.2,0,.2.2a.2.2,0,0,1-.2.2l.2.3h-.2l-.2-.4h0c0,.2,0,.4,0,.6Z" style="fill: #8e979d"/>
    <path d="M17.2,9.9l-.3.6h-.4l1.1-1.7h.5l.4,1.7H18V9.9Zm.6-.3V9.1l-.3.6Z" style="fill: #8e979d"/>
    <path d="M19,9.5h0a.6.6,0,0,1,.5-.2c.3,0,.5.1.4.4s-.1.5-.1.9h-.4a5.9,5.9,0,0,0,.1-.7c0-.2-.1-.3-.2-.3a.4.4,0,0,0-.4.3,5.4,5.4,0,0,0-.1.7h-.4c.1-.4.1-.8.2-1.3H19Z" style="fill: #8e979d"/>
    <path d="M21,10.5c.1-.5.2-1,.3-1.7h.4c-.1.5-.2,1-.2,1.7Z" style="fill: #8e979d"/>
    <path d="M22.2,9.5h0a.6.6,0,0,1,.5-.2c.3,0,.5.1.4.4s-.1.5-.1.9h-.4a5.9,5.9,0,0,0,.1-.7c0-.2-.1-.3-.2-.3a.4.4,0,0,0-.4.3,5.4,5.4,0,0,0-.1.7h-.4c.1-.4.1-.8.2-1.3h.4Z" style="fill: #8e979d"/>
    <path d="M24.4,10.3h0a.6.6,0,0,1-.5.2.5.5,0,0,1-.5-.6.8.8,0,0,1,.9-.8h.3V8.8h.4c-.1.3-.2,1.2-.3,1.7h-.3Zm-.1-.9a.5.5,0,0,0-.5.5c0,.2.1.4.3.4a.4.4,0,0,0,.4-.3V9.5h-.2" style="fill: #8e979d"/>
    <path d="M26.5,9.9a.8.8,0,0,1-.8.7.6.6,0,0,1-.6-.6.8.8,0,0,1,.8-.7.6.6,0,0,1,.6.7m-1.1.1c0,.2.1.4.3.4s.4-.2.4-.4-.1-.4-.3-.4-.4.2-.4.5" style="fill: #8e979d"/>
    <path d="M27.1,9.4h0l.4-.2h.1v.3h-.1a.4.4,0,0,0-.4.3,3.8,3.8,0,0,0-.1.6v.2h-.4c.1-.4.1-.7.2-1.3h.3Z" style="fill: #8e979d"/>
    <path d="M28.2,10.5H28c-.4,0-.4-.2-.4-.4s.9-.4,1-.6-.1-.1-.2-.1h-.5V9.3h.6c.2,0,.5.1.5.3s-.1.6-.1,1h-.4V9.9c-.1.1-.6.1-.6.3s.1.2.2.2h.2Z" style="fill: #8e979d"/>
    <path d="M29.6,9.4h0a.5.5,0,0,1,.4-.2.3.3,0,0,1,.4.2.5.5,0,0,1,.5-.2c.2,0,.4.1.4.3s-.1.5-.1,1h-.4V9.7c0-.1,0-.2-.2-.2a.3.3,0,0,0-.3.3c0,.2-.1.6-.1.7h-.4V9.7c0-.1,0-.2-.2-.2s-.3.1-.3.3a6.6,6.6,0,0,0-.1.7h-.4c0-.1.1-.8.2-1.3h.3Z" style="fill: #8e979d"/>
    <path d="M32,10.5h-.2c-.4,0-.4-.2-.4-.4s.9-.4,1-.6-.1-.1-.2-.1h-.5V9.3h.6c.2,0,.5.1.5.3s-.1.6-.1,1h-.4V9.9c-.1.1-.6.1-.6.3s.1.2.2.2h.2Z" style="fill: #8e979d"/>
    <path d="M34.1,10.5l-.4-1.7h.4c.1.5.2.9.3,1.4h0l.8-1.4h.4l-1.1,1.7Z" style="fill: #8e979d"/>
    <path d="M35.7,9.9h0a.3.3,0,0,0,.4.4h.4v.3H36c-.7,0-.7-.4-.7-.6a.7.7,0,0,1,.8-.7c.3,0,.6.2.5.5h-1Zm.6-.2c0-.2,0-.3-.2-.3a.4.4,0,0,0-.4.3Z" style="fill: #8e979d"/>
    <path d="M37.3,9.5h0a.6.6,0,0,1,.5-.2c.3,0,.5.1.4.4s-.1.5-.1.9h-.4a5.8,5.8,0,0,0,.1-.7c0-.2-.1-.3-.2-.3a.4.4,0,0,0-.4.3,5.4,5.4,0,0,0-.1.7h-.4c.1-.4.1-.8.2-1.3h.4Z" style="fill: #8e979d"/>
    <path d="M39,9.5v.6c0,.1,0,.2.1.2h.2v.3h-.3c-.2,0-.4-.1-.3-.3V9.5h-.2V9.2h.2V9h.3v.3h.3v.3Z" style="fill: #8e979d"/>
    <path d="M40.4,10.3h0a.6.6,0,0,1-.5.2c-.3,0-.5-.1-.4-.4s.1-.5.1-.9h.4V10c0,.2.1.3.2.3a.4.4,0,0,0,.4-.3,7,7,0,0,0,.1-.7h.4c-.1.4-.1.9-.2,1.3h-.3Z" style="fill: #8e979d"/>
    <path d="M41.5,9.4h0l.4-.2H42v.3h-.1a.4.4,0,0,0-.4.3,3.8,3.8,0,0,0-.1.6v.2H41c.1-.4.1-.7.2-1.3h.3Z" style="fill: #8e979d"/>
    <path d="M42.3,9.9h0a.3.3,0,0,0,.4.4h.4v.3h-.4c-.7,0-.7-.4-.7-.6a.7.7,0,0,1,.8-.7c.3,0,.6.2.5.5h-1Zm.6-.2c0-.2,0-.3-.2-.3a.4.4,0,0,0-.4.3Z" style="fill: #8e979d"/>
    <path d="M43.4,10.2h.4c.1,0,.2,0,.2-.1s-.5-.3-.4-.6.2-.4.5-.4h.4v.3h-.3c-.1,0-.2,0-.2.1s.5.3.4.6-.3.3-.6.3h-.4Z" style="fill: #8e979d"/>
    <path d="M47,9.1h-.4a.7.7,0,0,0-.8.7.5.5,0,0,0,.6.6h.5v.3h-.5c-.5,0-.9-.3-.9-.8a1,1,0,0,1,1.1-.9H47Z" style="fill: #8e979d"/>
    <path d="M48.5,9.9a.8.8,0,0,1-.8.7.6.6,0,0,1-.6-.6.8.8,0,0,1,.8-.7.6.6,0,0,1,.6.7m-1.1.1c0,.2.1.4.3.4s.4-.2.4-.4-.1-.4-.3-.4-.4.2-.4.5" style="fill: #8e979d"/>
    <path d="M49.1,9.4h0a.5.5,0,0,1,.4-.2.3.3,0,0,1,.4.2.5.5,0,0,1,.5-.2c.2,0,.4.1.4.3s-.1.5-.1,1h-.4V9.7c0-.1,0-.2-.2-.2a.3.3,0,0,0-.3.3c0,.2-.1.6-.1.7h-.4V9.7c0-.1,0-.2-.2-.2s-.3.1-.3.3a6.7,6.7,0,0,0-.1.7h-.4c0-.1.1-.8.2-1.3h.3Z" style="fill: #8e979d"/>
    <path d="M51.2,11.1h-.4c.1-.6.2-1.2.3-1.8h.7c.6,0,.6.4.6.7a.7.7,0,0,1-.7.7l-.4-.2h0Zm.2-1.6V10a.3.3,0,0,0,.3.4c.2,0,.4-.2.4-.4s-.1-.4-.3-.4h-.3" style="fill: #8e979d"/>
    <path d="M53.2,10.5h-.2c-.4,0-.4-.2-.4-.4s.9-.4,1-.6-.1-.1-.2-.1h-.5V9.3h.6c.2,0,.5.1.5.3s-.1.6-.1,1h-.4V9.9c-.1.1-.6.1-.6.3s.1.2.2.2h.2Z" style="fill: #8e979d"/>
    <path d="M54.5,9.5h0a.6.6,0,0,1,.5-.2c.3,0,.5.1.4.4s-.1.5-.1.9H55a5.8,5.8,0,0,0,.1-.7c0-.2-.1-.3-.2-.3a.4.4,0,0,0-.4.3,5.4,5.4,0,0,0-.1.7H54c.1-.4.1-.8.2-1.3h.4Z" style="fill: #8e979d"/>
    <path d="M55.7,9.2h.4c0,.3.1.7.2,1h0l.5-1h.4l-.9,1.6a.5.5,0,0,1-.5.3h-.3v-.3h.2c.2,0,.3-.2.3-.3Z" style="fill: #8e979d"/>
  </g>
</svg>
