<svg id="Layer_1" data-name="Layer 1" xmlns="http://www.w3.org/2000/svg" viewBox="0 0 66.1 12.2">
  <title>track-promo-logo-grid</title>
  <g>
    <path d="M65.8,8.6V8.3h.1v.5H66V8.4h0v.4h-.1V8.4h0v.4h-.1V8.3h.1v.3Zm-.3-.3h-.1v.4h-.1V8.4h.2Z" style="fill: #231f20;fill-rule: evenodd"/>
    <path d="M25.2,2.4H27V3a2.8,2.8,0,0,1,2-.8,2.4,2.4,0,0,1,2.4,2.5v4H29.5V5.3c0-.9-.4-1.4-1.2-1.4s-1.2.5-1.2,1.4V8.8H25.2V2.4Z" style="fill: #ec1b2e;fill-rule: evenodd"/>
    <path d="M45,5.6a1.6,1.6,0,1,1,3.2,0,1.6,1.6,0,1,1-3.2,0Zm-1.9,0a3.4,3.4,0,1,0,3.4-3.4,3.4,3.4,0,0,0-3.4,3.4Z" style="fill: #ec1b2e;fill-rule: evenodd"/>
    <path d="M19.2,5.6a1.6,1.6,0,1,1,3.2,0,1.6,1.6,0,1,1-3.2,0Zm-1.9,0a3.4,3.4,0,1,0,3.4-3.4,3.4,3.4,0,0,0-3.4,3.4Z" style="fill: #ec1b2e;fill-rule: evenodd"/>
    <path d="M59.2,2.4h1.9V8.8H59.2V2.4Zm0-2.4h1.9V1.6H59.2V0Z" style="fill: #ec1b2e;fill-rule: evenodd"/>
    <polygon points="62.6 0 64.5 0 64.5 8.8 62.6 8.8 62.6 0 62.6 0" style="fill: #ec1b2e;fill-rule: evenodd"/>
    <path d="M56.1,5.6A1.6,1.6,0,1,1,54.5,4a1.6,1.6,0,0,1,1.6,1.6ZM53,8.8V8.3a2.9,2.9,0,0,0,2,.6,3.3,3.3,0,0,0,3.1-3.4A3.2,3.2,0,0,0,55,2.2a2.9,2.9,0,0,0-2,.7V0H51.2V8.8Z" style="fill: #ec1b2e;fill-rule: evenodd"/>
    <polygon points="6.2 8.8 9.2 5 6.6 2.4 9.2 2.4 10.4 3.6 12.6 0.8 14.8 0.8 11.6 4.8 12.8 6 15.7 2.4 17.9 2.4 14 7.2 18.9 12.2 16.3 12.2 12.9 8.7 11 11 8.8 11 11.7 7.5 10.4 6.2 8.4 8.8 6.2 8.8 6.2 8.8" style="fill: #ec1b2e;fill-rule: evenodd"/>
    <polygon points="0 0 5.8 0 5.8 1.6 2 1.6 2 3.5 5.6 3.5 5.6 5 2 5 2 7.2 5.8 7.2 5.8 8.8 0 8.8 0 0 0 0" style="fill: #ec1b2e;fill-rule: evenodd"/>
    <polygon points="32.9 0 36 0 37.5 6.4 37.5 6.4 39.1 0 42.1 0 42.1 8.8 40.2 8.8 40.2 2.2 40.1 2.2 38.5 8.8 36.4 8.8 34.8 2.2 34.7 2.2 34.7 8.8 32.9 8.8 32.9 0 32.9 0" style="fill: #ec1b2e;fill-rule: evenodd"/>
  </g>
</svg>
