<svg id="Layer_1" data-name="Layer 1" xmlns="http://www.w3.org/2000/svg" viewBox="0 0 60.7 17.1">
  <title>track-promo-logo-grid</title>
  <g>
    <path d="M13.3,4.3v8.4h0v1c0,.4.1.6.3.6s.3-.2.3-.6V12.7h0V4.3c0-.4-.1-.6-.3-.6s-.3.2-.3.6Z" style="fill: #b9b48a"/>
    <path d="M8.4,10.1H4.5V4.3H5.9c.3,0,.4-.1.4-.3s-.1-.3-.4-.3H4.5V3.3c0-1.4.1-2.1.4-2.5A2,2,0,0,1,6.1.4h.5a.4.4,0,0,0,0-.3H4.4A2.1,2.1,0,0,0,2.8.7a3.8,3.8,0,0,0-.7,2.5v.2H2v.2H.9c-.3,0-.4.1-.4.3s.1.3.4.3H2v5.7H.9c-.4,0-.5.2-.5.3s.2.4.5.4H2v3.1c0,1.4-.1,2.1-.4,2.5a2,2,0,0,1-1.2.4H0a.4.4,0,0,0,0,.3H2.1a2.1,2.1,0,0,0,1.7-.7,3.8,3.8,0,0,0,.7-2.5v-.2h0V10.8H8.4c.4,0,.5-.2.5-.3s-.2-.4-.5-.4Z"/>
    <path d="M9.9,5.8v8a3.8,3.8,0,0,1-.7,2.5,2.1,2.1,0,0,1-1.7.7H5.6a.4.4,0,0,1,0-.3h.5a2,2,0,0,0,1.2-.4c.3-.4.4-1.1.4-2.5V7.4a1.4,1.4,0,0,1,.7-1.3,2.7,2.7,0,0,1,1.6-.3Z" style="fill: #b9b48a"/>
    <path d="M15.9,9.2h.2c.4-.1.4-.1.4-1V5.1c0-.9,0-.9-.4-1h-.2V3.8h3.5a10.5,10.5,0,0,1,.1,1.4h-.3C19,4.4,19,4.1,18,4.1h-.6V6.5H18c.6,0,.7,0,.8-.4V5.8H19V7.6h-.2V7.2c-.1-.3-.2-.3-.8-.3h-.6V8.2c0,.9,0,.9.4,1h.2v.2h-2V9.2Z"/>
    <path d="M19.8,9.2H20c.4-.1.4,0,.4-1V5c0-.8,0-.9-.4-1h-.2V3.8h2V4h-.2c-.4.1-.4.2-.4,1V9H22c1.1,0,1.1-.6,1.3-1.3h.3a7,7,0,0,1-.3,1.6H19.8V9.2Z"/>
    <path d="M25.4,8.2c0,.8,0,1,.4,1H26v.2h-2V9.2h.2c.4-.1.4-.2.4-1V5.1c0-.9,0-1-.4-1h-.2V3.8h2V4h-.2c-.4.1-.4.2-.4,1V8.2Z"/>
    <path d="M26.3,9.2h.2c.3-.1.3-.4.3-1.5V3.8h.4l3.4,4.1V5.6c0-1.4-.1-1.5-.5-1.5h-.2V3.8h1.7V4h-.2c-.3.1-.3.4-.3,1.5V9.5h-.4L27.3,5.5V7.7c0,1.3.1,1.4.5,1.5H28v.2H26.3V9.2Z"/>
    <path d="M33.2,4.1h-.3c-.9,0-.9.2-1.1,1.1h-.3c0-.1.1-1.3.1-1.5h4.2c0,.2.1,1.3.1,1.5h-.3c-.2-.9-.3-1.1-1.1-1.1h-.3V8.2c0,.9,0,.9.5,1h.2v.2H32.5V9.2h.2c.5-.1.5-.1.5-1V4.1Z"/>
    <path d="M38.8,5.1c0-.9,0-1-.4-1h-.2V3.8h2V4h-.2c-.4.1-.4.2-.4,1V6.3H42V5.1c0-.9,0-1-.4-1h-.2V3.8h2V4h-.2c-.4.1-.4.2-.4,1V8.2c0,.9,0,1,.4,1h.2v.2h-2V9.2h.2c.4-.1.4-.2.4-1V6.7H39.8V8.2c0,.8,0,1,.4,1h.2v.2h-2V9.2h.2c.4-.1.4-.2.4-1V5.1Z"/>
    <path d="M45.7,8.2c0,.8,0,1,.4,1h.2v.2h-2V9.2h.2c.4-.1.4-.2.4-1V5.1c0-.9,0-1-.4-1h-.2V3.8h2V4h-.2c-.4.1-.4.2-.4,1V8.2Z"/>
    <path d="M46.7,9.2h.2c.4-.1.4,0,.4-1V5c0-.8,0-.9-.4-1h-.2V3.8h2V4h-.2c-.4.1-.4.2-.4,1V9h.7c1.1,0,1.1-.6,1.3-1.3h.3a7,7,0,0,1-.3,1.6H46.7V9.2Z"/>
    <path d="M50.5,9.2h.2c.4-.1.4,0,.4-1V5c0-.8,0-.9-.4-1h-.2V3.8h2V4h-.2c-.4.1-.4.2-.4,1V9h.7c1.1,0,1.1-.6,1.3-1.3h.3A7,7,0,0,1,54,9.5H50.5V9.2Z"/>
    <path d="M57.4,5.3c-.1-.4-.2-1.3-1.1-1.3a.8.8,0,0,0-.8.9c0,1.3,2.4,1.2,2.4,3.1a1.7,1.7,0,0,1-1.9,1.7,2.5,2.5,0,0,1-1.3-.3,4.5,4.5,0,0,1-.2-1.6H55c.1.5.4,1.7,1.3,1.7s.8-.4.8-1S54.7,7,54.7,5.2s.7-1.5,1.7-1.5a2,2,0,0,1,1.2.3,9.4,9.4,0,0,1,.1,1.3Z"/>
    <path d="M16.4,12.4a.9.9,0,0,1,.7-.5h.4v.4h-.3a.7.7,0,0,0-.6.4,2,2,0,0,0-.1.5v1H16V12h.4v.4Z"/>
    <path d="M21.9,12.5a.7.7,0,0,0-.6-.3c-.5,0-.8.2-.9.7H22a.7.7,0,0,0-.1-.4Zm-1.5.7a.7.7,0,0,0,.8.8.9.9,0,0,0,.6-.2v-.3h.4a.6.6,0,0,1-.3.5,1.5,1.5,0,0,1-.9.2,1.1,1.1,0,0,1-1.2-1.2,1.1,1.1,0,0,1,.3-.8,1.5,1.5,0,0,1,1-.4,1.1,1.1,0,0,1,1,.6,1.6,1.6,0,0,1,.1.7Z"/>
    <path d="M26.8,12.3h-.5c-.2,0-.6,0-.6.3s.3.3.5.3h.3c.4.1.9.1.9.7a.6.6,0,0,1-.4.6h-.8a1.3,1.3,0,0,1-.9-.3.6.6,0,0,1-.2-.5h.4v.3l.5.2c.2,0,.7,0,.7-.4s-.3-.3-.5-.3h-.3c-.4-.1-.9-.1-.9-.6a.6.6,0,0,1,.3-.5h.7a1.3,1.3,0,0,1,.8.2.6.6,0,0,1,.2.4h-.4a.3.3,0,0,0-.1-.2Z"/>
    <path d="M30.5,13.1a1,1,0,1,0,1-.9.9.9,0,0,0-1,.9Zm2-.8a1.2,1.2,0,0,1,0,1.7,1.8,1.8,0,0,1-2,0,1.2,1.2,0,0,1,0-1.7,1.8,1.8,0,0,1,2,0Z"/>
    <path d="M38,14.2h-.4v-.4l-.2.3-.7.2a1,1,0,0,1-.9-.4,1.3,1.3,0,0,1-.1-.7V12h.4v1.2a.8.8,0,0,0,.1.6.7.7,0,0,0,.6.2l.5-.2a1.2,1.2,0,0,0,.3-.9V12H38v2.2Z"/>
    <path d="M41.5,12.4a.9.9,0,0,1,.7-.5h.4v.4h-.3a.7.7,0,0,0-.6.4,2,2,0,0,0-.1.5v1h-.4V12h.4v.4Z"/>
    <path d="M47.2,12.7c0-.4-.3-.5-.7-.5a.8.8,0,0,0-.9.9.8.8,0,0,0,.9.9.6.6,0,0,0,.7-.5h.4a.8.8,0,0,1-.2.4,1.2,1.2,0,0,1-.9.3,1.2,1.2,0,1,1,0-2.3,1.2,1.2,0,0,1,.9.3.9.9,0,0,1,.2.5Z"/>
    <path d="M52.3,12.5a.7.7,0,0,0-.6-.3c-.5,0-.8.2-.9.7h1.6a.7.7,0,0,0-.1-.4Zm-1.5.7a.7.7,0,0,0,.8.8.9.9,0,0,0,.6-.2v-.3h.4a.6.6,0,0,1-.3.5,1.5,1.5,0,0,1-.9.2,1.1,1.1,0,0,1-1.2-1.2,1.1,1.1,0,0,1,.3-.8,1.5,1.5,0,0,1,1-.4,1.1,1.1,0,0,1,1,.6,1.6,1.6,0,0,1,.1.7Z"/>
    <path d="M57.1,12.3h-.5c-.2,0-.6,0-.6.3s.3.3.5.3h.3c.4.1.9.1.9.7a.6.6,0,0,1-.4.6h-.8a1.3,1.3,0,0,1-.9-.3.6.6,0,0,1-.2-.5H56v.3l.5.2c.2,0,.7,0,.7-.4s-.3-.3-.5-.3h-.3c-.4-.1-.9-.1-.9-.6A.6.6,0,0,1,56,12h.7a1.3,1.3,0,0,1,.8.2.6.6,0,0,1,.2.4h-.4a.4.4,0,0,0-.1-.2Z"/>
    <path d="M59.9,12.5h0v.3Zm0,.4h-.1v-.8h.5v.2a.2.2,0,0,1-.1.2h0v.4h-.1v-.2h-.3v.3Zm.1-1a.6.6,0,1,0,.6.6.6.6,0,0,0-.6-.6Zm0-.1a.7.7,0,1,1-.7.7.7.7,0,0,1,.7-.7Z"/>
  </g>
</svg>
