<svg xmlns="http://www.w3.org/2000/svg" viewBox="-2094.539 -4258.766 207.635 187.568">
  <defs>
    <style>
      .cls-1 {
        fill: #fff;
      }
    </style>
  </defs>
  <g id="AO_icon" transform="translate(-2094.539 -4258.766)">
    <g id="Group_1923" data-name="Group 1923" transform="translate(47.828 149.722)">
      <path id="Path_1342" data-name="Path 1342" class="cls-1" d="M203.832,152.318H47.975c-1.144,0-1.975-1.872-1.975-4.159S46.936,144,47.975,144H203.832c1.144,0,1.975,1.872,1.975,4.159S204.976,152.318,203.832,152.318Z" transform="translate(-46 -144)"/>
    </g>
    <g id="Group_1924" data-name="Group 1924" transform="translate(69.558 32.856)">
      <path id="Path_1343" data-name="Path 1343" class="cls-1" d="M77.505,31.6S66.9,31.6,66.9,42.205v87.234s.1,3.431.1,11.645H92.27s.1-7.59.1-11.645V42.205s0-10.605-10.605-10.605H77.505Z" transform="translate(-66.9 -31.6)"/>
    </g>
    <g id="Group_1925" data-name="Group 1925" transform="translate(60.825 50.219)">
      <rect id="Rectangle_4506" data-name="Rectangle 4506" class="cls-1" width="41.381" height="3.535"/>
    </g>
    <g id="Group_1926" data-name="Group 1926" transform="translate(60.825 67.063)">
      <rect id="Rectangle_4507" data-name="Rectangle 4507" class="cls-1" width="41.381" height="3.535"/>
    </g>
    <g id="Group_1927" data-name="Group 1927" transform="translate(60.825 83.907)">
      <rect id="Rectangle_4508" data-name="Rectangle 4508" class="cls-1" width="41.381" height="3.535"/>
    </g>
    <g id="Group_1928" data-name="Group 1928" transform="translate(60.825 100.542)">
      <rect id="Rectangle_4509" data-name="Rectangle 4509" class="cls-1" width="41.381" height="3.535"/>
    </g>
    <g id="Group_1929" data-name="Group 1929" transform="translate(60.825 116.45)">
      <rect id="Rectangle_4510" data-name="Rectangle 4510" class="cls-1" width="41.381" height="3.535"/>
    </g>
    <g id="Group_1930" data-name="Group 1930" transform="translate(80.891 16.636)">
      <path id="Path_1344" data-name="Path 1344" class="cls-1" d="M112.007,63.724h-3.535l.208-44.189H85.286c-3.743,0-3.951.624-3.951,2.7v6.342H77.8V22.238C77.8,16,82.687,16,85.286,16h26.929Z" transform="translate(-77.8 -16)"/>
    </g>
    <g id="Group_1931" data-name="Group 1931" transform="translate(170.309 122.897)">
      <rect id="Rectangle_4511" data-name="Rectangle 4511" class="cls-1" width="10.085" height="10.085"/>
    </g>
    <g id="Group_1932" data-name="Group 1932" transform="translate(170.309 108.756)">
      <rect id="Rectangle_4512" data-name="Rectangle 4512" class="cls-1" width="10.085" height="10.085"/>
    </g>
    <g id="Group_1933" data-name="Group 1933" transform="translate(170.309 94.616)">
      <rect id="Rectangle_4513" data-name="Rectangle 4513" class="cls-1" width="10.085" height="10.085"/>
    </g>
    <g id="Group_1934" data-name="Group 1934" transform="translate(154.921 122.897)">
      <rect id="Rectangle_4514" data-name="Rectangle 4514" class="cls-1" width="10.085" height="10.085"/>
    </g>
    <g id="Group_1935" data-name="Group 1935" transform="translate(154.921 108.756)">
      <rect id="Rectangle_4515" data-name="Rectangle 4515" class="cls-1" width="10.085" height="10.085"/>
    </g>
    <g id="Group_1936" data-name="Group 1936" transform="translate(154.921 94.616)">
      <rect id="Rectangle_4516" data-name="Rectangle 4516" class="cls-1" width="10.085" height="10.085"/>
    </g>
    <g id="Group_1937" data-name="Group 1937" transform="translate(139.429 108.756)">
      <rect id="Rectangle_4517" data-name="Rectangle 4517" class="cls-1" width="10.085" height="10.085"/>
    </g>
    <g id="Group_1938" data-name="Group 1938" transform="translate(139.429 94.616)">
      <rect id="Rectangle_4518" data-name="Rectangle 4518" class="cls-1" width="10.085" height="10.085"/>
    </g>
    <g id="Group_1939" data-name="Group 1939" transform="translate(124.04 94.616)">
      <rect id="Rectangle_4519" data-name="Rectangle 4519" class="cls-1" width="10.085" height="10.085"/>
    </g>
    <g id="Group_1940" data-name="Group 1940" transform="translate(111.356 66.855)">
      <path id="Path_1345" data-name="Path 1345" class="cls-1" d="M195.478,154.029a1.822,1.822,0,0,1-1.768-1.768V134.378h-9.462V84.471L162.622,72.93V85.2H160.23L139.748,73.034V85.2h-2.391L110.635,70.434V84.991h-1.768a1.822,1.822,0,0,1-1.768-1.768V64.3l29.113,16.116V66.8l22.874,13.621V66.9l28.7,15.388v48.556h9.462v21.419A1.822,1.822,0,0,1,195.478,154.029Z" transform="translate(-107.1 -64.3)"/>
    </g>
    <g id="Group_1941" data-name="Group 1941" transform="translate(156.478 28.552)">
      <path id="Path_1346" data-name="Path 1346" class="cls-1" d="M151.228,38,163.7,44.345a1.278,1.278,0,0,0,1.872-1.248l-.52-14.348a1.3,1.3,0,0,0-2.079-1.04L151.02,35.715A1.371,1.371,0,0,0,151.228,38Z" transform="translate(-150.498 -27.461)"/>
    </g>
    <g id="Group_1942" data-name="Group 1942">
      <path id="Path_1347" data-name="Path 1347" class="cls-1" d="M94.616,0C42.421,0,0,42.109,0,93.784s42.421,93.784,94.616,93.784a94.681,94.681,0,0,0,55.522-17.779l-.208-.312h-8.838A89.2,89.2,0,0,1,94.72,182.266c-49.283,0-89.313-39.718-89.313-88.481S45.436,5.3,94.616,5.3a89.808,89.808,0,0,1,66.855,29.84l3.951-3.535A94.846,94.846,0,0,0,94.616,0Z"/>
    </g>
    <path id="Path_1348" data-name="Path 1348" class="cls-1" d="M141.6,167.9h8.838" transform="translate(5.627 6.672)"/>
  </g>
</svg>
