<svg xmlns="http://www.w3.org/2000/svg" viewBox="-466.5 -4159.5 129.047 128.234">
  <defs>
    <style>
      .cls-1 {
        fill: none;
      }

      .cls-1, .cls-2 {
        stroke: #fff;
        stroke-miterlimit: 10;
        stroke-width: 3px;
      }

      .cls-2, .cls-3 {
        fill: #fff;
      }
    </style>
  </defs>
  <g id="design_icon" transform="translate(-465 -4158)">
    <rect id="Rectangle_4817" data-name="Rectangle 4817" class="cls-1" width="36.095" height="35.888" transform="translate(0 89.346)"/>
    <rect id="Rectangle_4818" data-name="Rectangle 4818" class="cls-2" width="36.095" height="35.888" transform="translate(0)"/>
    <rect id="Rectangle_4819" data-name="Rectangle 4819" class="cls-1" width="36.095" height="35.888" transform="translate(89.953)"/>
    <rect id="Rectangle_4820" data-name="Rectangle 4820" class="cls-1" width="36.095" height="35.888" transform="translate(89.953 89.346)"/>
    <line id="Line_117" data-name="Line 117" class="cls-1" x1="57.449" transform="translate(34.583 105.982)"/>
    <line id="Line_118" data-name="Line 118" class="cls-1" y2="56.262" transform="translate(107.339 35.701)"/>
    <line id="Line_119" data-name="Line 119" class="cls-1" x2="32.315" transform="translate(35.528 19.439)"/>
    <path id="Path_1513" data-name="Path 1513" class="cls-3" d="M32.1,8.4V23.164a1.469,1.469,0,0,0,2.079,1.308L47.6,17a1.4,1.4,0,0,0,0-2.43L34.179,7.089A1.4,1.4,0,0,0,32.1,8.4Z" transform="translate(25.727 3.192)"/>
    <line id="Line_120" data-name="Line 120" class="cls-1" y1="28.224" transform="translate(18.52 59.066)"/>
    <path id="Path_1514" data-name="Path 1514" class="cls-3" d="M8.177,45.053H23.106A1.454,1.454,0,0,0,24.429,43l-7.37-13.271a1.427,1.427,0,0,0-2.457,0L7.043,43A1.267,1.267,0,0,0,8.177,45.053Z" transform="translate(3.161 22.424)"/>
  </g>
</svg>
