<svg xmlns="http://www.w3.org/2000/svg" viewBox="-66 -4158 127.111 127">
  <defs>
    <style>
      .cls-1 {
        fill: #fff;
      }
    </style>
  </defs>
  <g id="operate_icon" transform="translate(-66.037 -4158.048)">
    <path id="Path_1515" data-name="Path 1515" class="cls-1" d="M72.411,4.884,58.5,17.844a1.812,1.812,0,0,0,.632,3l18.65,6.006A1.751,1.751,0,0,0,80,24.641L75.256,5.674A1.678,1.678,0,0,0,72.411,4.884Z" transform="translate(33.622 2.517)"/>
    <path id="Path_1516" data-name="Path 1516" class="cls-1" d="M33.112,73.459H16.2V36H33.112V73.459ZM19.361,70.3h10.59V39.161H19.361Z" transform="translate(9.383 20.872)"/>
    <path id="Path_1517" data-name="Path 1517" class="cls-1" d="M46.812,67.653H29.9V46H46.812ZM33.061,64.492h10.59V49.161H33.061V64.492Z" transform="translate(17.337 26.677)"/>
    <rect id="Rectangle_4822" data-name="Rectangle 4822" class="cls-1" width="13.751" height="63.854" transform="translate(68.89 30.477)"/>
    <rect id="Rectangle_4823" data-name="Rectangle 4823" class="cls-1" width="13.751" height="42.517" transform="translate(87.224 51.814)"/>
    <path id="Path_1518" data-name="Path 1518" class="cls-1" d="M63.516,127.048A63.606,63.606,0,0,1,.137,66.829a62.9,62.9,0,0,1,16.28-45.836A62.443,62.443,0,0,1,60.355.13a63.149,63.149,0,0,1,42.991,13.909l-3,3.635a58.695,58.695,0,1,0,21.97,42.675l4.742-.316a63.461,63.461,0,0,1-60.061,66.7A28.383,28.383,0,0,1,63.516,127.048Z" transform="translate(0 0)"/>
  </g>
</svg>
