<svg id="Layer_1" data-name="Layer 1" xmlns="http://www.w3.org/2000/svg" viewBox="0 0 48.6 33.3">
  <title>track-promo-logo-grid</title>
  <g>
    <path d="M44.4,4.7c-7.7,1.5-11.5,3.8-17.7,8.4-1.4,1.1-3.7,2-5.1,1.6a1.6,1.6,0,0,1-1.1-1.1c-.4-1.2.5-2.6,1.4-3.9S24,6.4,23.1,4.8a3.1,3.1,0,0,0-2.3-1.5C16.2,2.6,8.3,7.9,5.9,10.1c-.2.2-.3.6-.1.6s1.2.1,1.4-.1C10.1,8,16.9,3.9,20.5,4.4a2,2,0,0,1,1.5.9c.6,1-.2,2.2-1.1,3.6s-2,3.1-1.5,4.8a2.7,2.7,0,0,0,1.8,1.9c1.9.6,4.5-.5,6.2-1.7,6.1-4.6,9.5-6.9,17-8a2,2,0,0,0,.9-1.1c.1-.4-.7-.2-1-.2" style="fill: #006d84"/>
    <path d="M44.4,4.7c-7.7,1.5-11.5,3.8-17.7,8.4-1.4,1.1-3.7,2-5.1,1.6a1.6,1.6,0,0,1-1.1-1.1c-.4-1.2.5-2.6,1.4-3.9S24,6.4,23.1,4.8a3.1,3.1,0,0,0-2.3-1.5C16.2,2.6,8.3,7.9,5.9,10.1c-.2.2-.3.6-.1.6s1.2.1,1.4-.1C10.1,8,16.9,3.9,20.5,4.4a2,2,0,0,1,1.5.9c.6,1-.2,2.2-1.1,3.6s-2,3.1-1.5,4.8a2.7,2.7,0,0,0,1.8,1.9c1.9.6,4.5-.5,6.2-1.7,6.1-4.6,9.5-6.9,17-8a2,2,0,0,0,.9-1.1C45.5,4.5,44.7,4.6,44.4,4.7Z" style="fill: none;stroke: #006d84;stroke-width: 0.100848130486151px"/>
    <polygon points="10.8 0 19.3 0 23.4 12.9 27.6 0 36.1 0 26.7 21.4 20.2 21.4 10.8 0" style="fill: #00728e"/>
    <path d="M20.5,3.6h.1a1.9,1.9,0,0,1,1.5.9c.6,1-.2,2.2-1.1,3.6s-2,3.1-1.5,4.8A2.7,2.7,0,0,0,21.2,15c1.9.6,4.5-.5,6.2-1.7,6.1-4.6,9.5-6.9,17-8a1.9,1.9,0,0,0,.9-1.1c.1-.4-.7-.2-1-.2-7.7,1.5-11.5,3.8-17.7,8.4-1.4,1.1-3.7,2-5.1,1.6a1.6,1.6,0,0,1-1.1-1.1c-.4-1.2.5-2.6,1.4-3.9S24,5.6,23.1,4a3.1,3.1,0,0,0-2.3-1.5h-.7" style="fill: #ffc325"/>
    <path d="M12.9,4.6a36.2,36.2,0,0,0-7,4.7c-.2.2-.3.6-.1.6s1.2.1,1.4-.1a30.8,30.8,0,0,1,6.1-4.2" style="fill: #ffc325"/>
    <path d="M8.5,25.3,5.5,33.2H3.1L0,25.3H3l1,3.6a4.1,4.1,0,0,1,.2,1.2h.1a4.1,4.1,0,0,1,.2-1.2l1-3.6Z" style="fill: #00728e"/>
    <path d="M8.2,33.2l3.1-7.9h2.4l3.1,7.9h-3l-1-3.6a4.1,4.1,0,0,1-.2-1.2h-.1a4.1,4.1,0,0,1-.2,1.2l-1,3.6Z" style="fill: #00728e"/>
    <polygon points="17.7 25.3 20.6 25.3 20.6 30.7 23 30.7 23 33.2 17.7 33.2 17.7 25.3" style="fill: #00728e"/>
    <polygon points="24.7 25.3 30 25.3 30 27.5 27.5 27.5 27.5 28.2 29.8 28.2 29.8 30.3 27.5 30.3 27.5 31 30 31 30 33.2 24.7 33.2 24.7 25.3" style="fill: #00728e"/>
    <path d="M31.9,33.2h2.8V30.7h.1L36,33.2h3.3l-1.7-2.6-.5-.5h0A1.9,1.9,0,0,0,38.6,28c0-2-1.5-2.7-3.3-2.7H31.9Zm2.8-5.7h.2c.5,0,.9.1.9.7s-.5.7-.9.7h-.2Z" style="fill: #00728e"/>
    <path d="M44.2,25.2a4.1,4.1,0,0,0-4.4,4.1c0,2.5,2,4.1,4.4,4.1s4.4-1.5,4.4-4.1a4.1,4.1,0,0,0-4.4-4.1m0,2.6a1.5,1.5,0,0,1,1.5,1.5,1.5,1.5,0,1,1-3,0,1.5,1.5,0,0,1,1.5-1.5" style="fill: #00728e"/>
  </g>
</svg>
