<svg id="Layer_1" data-name="Layer 1" xmlns="http://www.w3.org/2000/svg" viewBox="0 0 61.4 18.1">
  <title>track-promo-logo-grid</title>
  <g>
    <path d="M40.2,3.1c0,1.4-1.4,2.6-3.4,2.6s-3.3-1.1-3.3-2.4S35,.7,36.9.7s3.3,1.1,3.3,2.4" style="fill: #231f20"/>
    <path d="M39.7,15.4c0,1.8,1.7.5,1.7,2.1v.3H33v-.3c0-1.6,1.8-.2,1.8-2.1V9c0-1.8-1.8-.5-1.8-2.1V6.6h6.6Z" style="fill: #231f20"/>
    <path d="M49.2,6.7v1a8.4,8.4,0,0,1,4.8-1.3c4,0,5.4,1.5,5.4,3.6v5.3c0,1.8,1.8.5,1.8,2v.3H52.5v-.3c0-1.5,1.8-.2,1.8-2V9.9C54.3,9,54,8,52.1,8a4.3,4.3,0,0,0-2.6.8v6.6c0,1.8,2,.5,2,2v.3h-9v-.3c0-1.5,1.8-.2,1.8-2V9.1c0-1.8-1.8-.5-1.8-2V6.7Z" style="fill: #231f20"/>
    <path d="M23.7,17.9v-.4c0-1.6,1.8-.2,1.8-2.1V3.5c0-1.9-1.8-.5-1.8-2.1V1h6.9V15.4c0,1.9,1.8.5,1.8,2.1v.4Z" style="fill: #231f20"/>
    <path d="M16.1,9.7c-.7.4-3.5,7.3-4.6,7.3S8,10.2,6.9,9.7.3,9.5,0,9.5c.3,5,4.8,8.6,11.5,8.6S22.7,14.5,23,9.5c-.3,0-6-.3-6.8.2" style="fill: #231f20"/>
    <path d="M6.9,8.4c1.1-.5,3.2-7.3,4.6-7.3s3.9,6.9,4.6,7.3,6.5.2,6.8.2C22.7,3.6,18.2,0,11.5,0S.3,3.6,0,8.6c.3,0,5.7.3,6.9-.2" style="fill: #ee3e42"/>
  </g>
</svg>
