<svg id="Layer_1" data-name="Layer 1" xmlns="http://www.w3.org/2000/svg" viewBox="0 0 61.5 21.2">
  <title>track-promo-logo-grid</title>
  <g>
    <path d="M46.9,18.2v-.6h.4c.2,0,.4,0,.4.3s-.2.3-.5.3h-.3m0,.2h.3l.5.8h.3l-.5-.8a.5.5,0,0,0,.5-.5c0-.4-.2-.5-.7-.5h-.7v1.9h.3Zm.3,1.5a1.6,1.6,0,1,0-1.6-1.6,1.6,1.6,0,0,0,1.6,1.6M46,18.3a1.3,1.3,0,1,1,1.3,1.3A1.3,1.3,0,0,1,46,18.3" style="fill: #ef3e42"/>
    <polygon points="30.5 0 0 10.4 30.5 21.2 61.5 10.4 30.5 0" style="fill: #ef3e42"/>
    <path d="M48.1,8.3l-.4.2L45.3,14c0,.2,0,.3.5.3v.5H42.5v-.5c.3,0,.4-.1.4-.3s-1.2-3.1-1.2-3.1l-1.4,3h0c0,.3.1.3.5.3h0v.5H37.3v-.5c.3,0,.5-.1.5-.3a.4.4,0,0,0,0-.2l-2-5.2h0c-.1-.2-.1-.3-.6-.3V7.8h3.3v.5c-.3,0-.4,0-.4.3h0l1.1,3.3L40.6,8h2.3l1.5,4,1.3-3.5c0-.2-.1-.3-.5-.3h-.1V7.8h3.4v.5h-.3" style="fill: #fff"/>
    <path d="M30.6,13.4a2.3,2.3,0,0,1-2.5-2.1,2.3,2.3,0,0,1,2.5-2.1,2.3,2.3,0,0,1,2.5,2.1,2.3,2.3,0,0,1-2.5,2.1m0-6c-2.7,0-4.5,1.7-4.5,3.8S27.9,15,30.6,15s4.5-1.5,4.5-3.8-1.8-3.8-4.5-3.8" style="fill: #fff"/>
    <path d="M21.1,12.8H17.8V8h3.3A2.4,2.4,0,0,1,23,10.4a2.1,2.1,0,0,1-1.9,2.3m.2-6.6H15v.4h0c.5,0,.8.1.9.3h0v7h0c0,.2-.4.3-.9.3v.5h6.3c1.4,0,3.5-1.7,3.5-4.2s-1.9-4.3-3.5-4.3" style="fill: #fff"/>
  </g>
</svg>
