<svg id="Layer_1" data-name="Layer 1" xmlns="http://www.w3.org/2000/svg" viewBox="0 0 44.1 40.9">
  <title>track-promo-logo-grid</title>
  <g>
    <path d="M14.6,1.3A22.3,22.3,0,0,1,24.6.1,22,22,0,0,1,35.4,4.5a21.7,21.7,0,0,1,6.8,8.7,23.5,23.5,0,0,1,1.9,10,27.4,27.4,0,0,1-.3,3.3l-6.9,5-1,8.3H24.7a3.6,3.6,0,0,1-2,1,3.8,3.8,0,0,1-3.3-1H8.2l-1-8.3-6.9-5a25.6,25.6,0,0,1,.1-8.5A21.8,21.8,0,0,1,14.6,1.3Z" style="fill: #ee3425"/>
    <path d="M17.3,4.6a9.6,9.6,0,0,1,3.8-.4q.5,11.1.9,22.3c0,.4,0,.7,0,1.1a6.3,6.3,0,0,0,.1-.8q.5-11.3.9-22.6a9.5,9.5,0,0,1,3.7.3,6.2,6.2,0,0,1,1.9.9L24.4,26.6c-.1.4-.2.7-.2,1.1L30.3,6.3a7.8,7.8,0,0,1,2.3,1,11.6,11.6,0,0,1,2,1.6l.5.6-9,19.1,2.9-5,7.2-12.4a6.7,6.7,0,0,1,1.6,1.9A9.4,9.4,0,0,1,39,16.1L28.2,29.5l-.5.7L39.4,18.4a7,7,0,0,1,.7,2.6,8.9,8.9,0,0,1-.2,3.4l-6.7,5-.9,6.5H24.3a3.7,3.7,0,0,1-1.9,1.2,2.4,2.4,0,0,1-1.7-.4l-.9-.7H11.9l-.9-6.4v-.2L6.1,25.8,4.2,24.4a3.4,3.4,0,0,1-.2-.6,9.6,9.6,0,0,1-.1-3,6.8,6.8,0,0,1,.7-2.4l8.4,8.4,3.4,3.4L5.1,16.1a9,9,0,0,1,1-2.5,7.1,7.1,0,0,1,1.9-2.3l7.1,12.3,3,5.1L9,9.6a8.5,8.5,0,0,1,1.5-1.5,9,9,0,0,1,3.3-1.7l6.1,21.5c-.2-1-.4-1.9-.6-2.9L15.5,5.4a5.9,5.9,0,0,1,1.8-.9Z" style="fill: #ffd000"/>
  </g>
</svg>
